<svg width="26.165161" height="29.083008" viewBox="0 0 26.1652 29.083" fill="none" xmlns="http://www.w3.org/2000/svg" xmlns:xlink="http://www.w3.org/1999/xlink">
	<desc>
			Created with Pixso.
	</desc>
	<defs>
		<filter id="filter_1_58_dd" x="0.000000" y="0.000000" width="26.165161" height="29.083008" filterUnits="userSpaceOnUse" color-interpolation-filters="sRGB">
			<feFlood flood-opacity="0" result="BackgroundImageFix"/>
			<feColorMatrix in="SourceAlpha" type="matrix" values="0 0 0 0 0 0 0 0 0 0 0 0 0 0 0 0 0 0 127 0" result="hardAlpha"/>
			<feOffset dx="0" dy="4"/>
			<feGaussianBlur stdDeviation="1.33333"/>
			<feComposite in2="hardAlpha" operator="out" k2="-1" k3="1"/>
			<feColorMatrix type="matrix" values="0 0 0 0 0 0 0 0 0 0 0 0 0 0 0 0 0 0 0.25 0"/>
			<feBlend mode="normal" in2="BackgroundImageFix" result="effect_dropShadow_1"/>
			<feColorMatrix in="SourceAlpha" type="matrix" values="0 0 0 0 0 0 0 0 0 0 0 0 0 0 0 0 0 0 127 0" result="hardAlpha"/>
			<feOffset dx="0" dy="4"/>
			<feGaussianBlur stdDeviation="1.33333"/>
			<feComposite in2="hardAlpha" operator="out" k2="-1" k3="1"/>
			<feColorMatrix type="matrix" values="0 0 0 0 0 0 0 0 0 0 0 0 0 0 0 0 0 0 0.25 0"/>
			<feBlend mode="normal" in2="effect_dropShadow_1" result="effect_dropShadow_2"/>
			<feBlend mode="normal" in="SourceGraphic" in2="effect_dropShadow_2" result="shape"/>
		</filter>
	</defs>
	<g filter="url(#filter_1_58_dd)">
		<path id="Vector" d="M8.08 7L8.08 5C8.08 3.67 8.15 1.93 9.08 1C10.01 0.06 11.76 0 13.08 0C14.39 0 16.15 0.06 17.08 1C18.01 1.93 18.08 3.67 18.08 5L18.08 7L21.08 7C21.34 7 21.89 6.81 22.08 7C22.26 7.18 22.08 7.73 22.08 8L22.08 20C22.08 20.26 22.26 20.81 22.08 21C21.89 21.18 21.34 21 21.08 21L5.08 21C4.81 21 4.26 21.18 4.08 21C3.89 20.81 4.08 20.26 4.08 20L4.08 8C4.08 7.73 3.89 7.18 4.08 7C4.26 6.81 4.81 7 5.08 7L8.08 7ZM8.08 9L6.08 9L6.08 19L20.08 19L20.08 9L18.08 9L18.08 11L16.08 11L16.08 9L10.08 9L10.08 11L8.08 11L8.08 9ZM10.08 7L16.08 7L16.08 5C16.08 4.2 15.64 3.56 15.08 3C14.52 2.43 13.87 2 13.08 2C12.29 2 11.64 2.43 11.08 3C10.52 3.56 10.08 4.2 10.08 5L10.08 7Z" fill="#C4C4C4" fill-opacity="1.000000" fill-rule="nonzero"/>
	</g>
</svg>
